<svg width="646" height="90" viewBox="0 0 646 90" fill="none" xmlns="http://www.w3.org/2000/svg">
<path d="M70.5 0H19.5C8.73045 0 0 8.73045 0 19.5V70.5C0 81.2696 8.73045 90 19.5 90H70.5C81.2696 90 90 81.2696 90 70.5V19.5C90 8.73045 81.2696 0 70.5 0Z" fill="url(#paint0_linear_985_125156)"/>
<rect width="90" height="90" rx="28.125" fill="black"/>
<mask id="path-3-inside-1_985_125156" fill="white">
<path d="M75.4105 45C76.8406 45 78.0106 46.1613 77.8985 47.5871C77.3471 54.6006 74.5649 61.2802 69.9246 66.6279C64.7166 72.6297 57.5177 76.5508 49.6506 77.6707C41.7835 78.7905 33.7764 77.034 27.1005 72.7238C20.4246 68.4136 15.5282 61.8391 13.3108 54.2083C11.0934 46.5775 11.704 38.4029 15.0304 31.1862C18.3568 23.9695 24.1755 18.1954 31.4177 14.9247C38.6598 11.6541 46.839 11.1066 54.4524 13.3827C61.2361 15.4108 67.1647 19.5592 71.3889 25.1851C72.2476 26.3287 71.8822 27.9361 70.6747 28.7026C69.4673 29.469 67.8764 29.1026 67.001 27.9717C63.4574 23.393 58.5573 20.0155 52.969 18.3447C46.5504 16.4258 39.6549 16.8874 33.5493 19.6447C27.4437 22.4021 22.5381 27.27 19.7338 33.3541C16.9295 39.4382 16.4147 46.33 18.2841 52.7632C20.1535 59.1964 24.2814 64.739 29.9096 68.3728C35.5378 72.0066 42.2883 73.4875 48.9207 72.5433C55.5532 71.5992 61.6222 68.2935 66.0129 63.2336C69.8356 58.8282 72.1626 53.3506 72.7006 47.5859C72.8335 46.1619 73.9804 45 75.4105 45Z"/>
</mask>
<path d="M75.4105 45C76.8406 45 78.0106 46.1613 77.8985 47.5871C77.3471 54.6006 74.5649 61.2802 69.9246 66.6279C64.7166 72.6297 57.5177 76.5508 49.6506 77.6707C41.7835 78.7905 33.7764 77.034 27.1005 72.7238C20.4246 68.4136 15.5282 61.8391 13.3108 54.2083C11.0934 46.5775 11.704 38.4029 15.0304 31.1862C18.3568 23.9695 24.1755 18.1954 31.4177 14.9247C38.6598 11.6541 46.839 11.1066 54.4524 13.3827C61.2361 15.4108 67.1647 19.5592 71.3889 25.1851C72.2476 26.3287 71.8822 27.9361 70.6747 28.7026C69.4673 29.469 67.8764 29.1026 67.001 27.9717C63.4574 23.393 58.5573 20.0155 52.969 18.3447C46.5504 16.4258 39.6549 16.8874 33.5493 19.6447C27.4437 22.4021 22.5381 27.27 19.7338 33.3541C16.9295 39.4382 16.4147 46.33 18.2841 52.7632C20.1535 59.1964 24.2814 64.739 29.9096 68.3728C35.5378 72.0066 42.2883 73.4875 48.9207 72.5433C55.5532 71.5992 61.6222 68.2935 66.0129 63.2336C69.8356 58.8282 72.1626 53.3506 72.7006 47.5859C72.8335 46.1619 73.9804 45 75.4105 45Z" fill="white" stroke="white" stroke-width="1.5" mask="url(#path-3-inside-1_985_125156)"/>
<g filter="url(#filter0_d_985_125156)">
<circle cx="72.75" cy="36" r="4.5" fill="white"/>
<circle cx="72.75" cy="36" r="4.125" stroke="white" stroke-width="0.75"/>
</g>
<g filter="url(#filter1_dd_985_125156)">
<circle cx="45" cy="45" r="7.5" fill="white"/>
<circle cx="45" cy="45" r="7.125" stroke="white" stroke-width="0.75"/>
</g>
<path d="M134.19 87.2549V4.21442H167.945V87.2549H134.19Z" fill="black"/>
<path d="M194.435 87.2799C187.328 87.2799 181.969 85.9899 178.357 83.41C174.745 80.8301 173.005 76.5524 173.138 70.5769V56.0211H208.242V61.6637C208.242 65.492 209.657 67.4061 212.487 67.4061C213.985 67.4061 215.083 66.9317 215.782 65.983C216.481 65.0176 216.831 63.4114 216.831 61.1643C216.831 59.916 216.764 58.884 216.631 58.0684C216.498 57.2362 216.223 56.5205 215.807 55.9212C215.408 55.322 214.817 54.7977 214.035 54.3483C213.269 53.8823 212.237 53.4162 210.939 52.9502L187.145 44.1368C181.619 42.0895 177.907 39.909 176.01 37.5954C174.096 35.1653 173.138 31.9362 173.138 27.9082V19.2696C173.138 14.3261 174.944 10.5893 178.556 8.05935C182.168 5.51271 187.528 4.23939 194.635 4.23939H229.964C237.088 4.23939 242.447 5.51271 246.042 8.05935C249.654 10.5893 251.46 14.3261 251.46 19.2696V28.782H216.581V27.8083C216.581 24.1631 215.092 22.3405 212.112 22.3405C210.88 22.3405 209.89 22.7067 209.141 23.4391C208.392 24.1714 208.017 25.1285 208.017 26.3103C208.017 26.9095 208.076 27.4255 208.192 27.8582C208.325 28.2744 208.608 28.6822 209.041 29.0816C209.491 29.4811 210.115 29.8972 210.914 30.33C211.713 30.7628 212.803 31.2371 214.184 31.7531L241.873 42.464C243.621 43.1797 245.102 44.0036 246.317 44.9357C247.532 45.8512 248.522 46.9747 249.288 48.3063C250.07 49.6212 250.628 51.2025 250.961 53.05C251.294 54.8976 251.46 57.0781 251.46 59.5914V68.5047C251.327 75.5287 249.546 80.414 246.117 83.1603C242.688 85.9067 237.237 87.2799 229.764 87.2799H194.435Z" fill="black"/>
<path d="M291.033 28.9318L291.058 62.3628C291.041 64.4766 291.366 65.9996 292.032 66.9317C292.714 67.8472 293.821 68.3049 295.352 68.3049C296.884 68.3049 297.991 67.8472 298.673 66.9317C299.355 65.9996 299.705 64.4766 299.722 62.3628L299.697 28.9318C299.697 24.9038 298.24 22.8898 295.327 22.8898C293.796 22.8898 292.698 23.3725 292.032 24.3379C291.366 25.2866 291.033 26.818 291.033 28.9318ZM277.176 87.23C273.381 87.23 270.161 86.8721 267.514 86.1564C264.884 85.4407 262.745 84.2839 261.098 82.686C259.466 81.0714 258.276 79.0075 257.527 76.4941C256.795 73.9641 256.429 70.8932 256.429 67.2813V21.8661C256.445 15.6577 258.101 11.1636 261.397 8.38392C264.693 5.58761 269.953 4.18945 277.176 4.18945H312.704C316.583 4.18945 319.887 4.51403 322.616 5.16317C325.346 5.79567 327.577 6.82764 329.308 8.25909C331.055 9.69053 332.329 11.5381 333.128 13.8018C333.943 16.0488 334.343 18.7369 334.326 21.8661V67.2813C334.326 74.6382 332.736 79.8148 329.557 82.8108C328.026 84.3255 325.846 85.4407 323.016 86.1564C320.186 86.8721 316.749 87.23 312.704 87.23H277.176Z" fill="black"/>
<path d="M357.545 87.2549V23.1395H339.319V4.21442H410.975V23.1395H392.774V87.2549H357.545Z" fill="black"/>
<path d="M450.623 28.9318L450.648 62.3628C450.631 64.4766 450.956 65.9996 451.621 66.9317C452.304 67.8472 453.411 68.3049 454.942 68.3049C456.473 68.3049 457.58 67.8472 458.263 66.9317C458.945 65.9996 459.295 64.4766 459.311 62.3628L459.286 28.9318C459.286 24.9038 457.83 22.8898 454.917 22.8898C453.386 22.8898 452.287 23.3725 451.621 24.3379C450.956 25.2866 450.623 26.818 450.623 28.9318ZM436.766 87.23C432.971 87.23 429.75 86.8721 427.104 86.1564C424.474 85.4407 422.335 84.2839 420.687 82.686C419.056 81.0714 417.866 79.0075 417.117 76.4941C416.384 73.9641 416.018 70.8932 416.018 67.2813V21.8661C416.035 15.6577 417.691 11.1636 420.987 8.38392C424.282 5.58761 429.542 4.18945 436.766 4.18945H472.294C476.172 4.18945 479.476 4.51403 482.206 5.16317C484.936 5.79567 487.166 6.82764 488.897 8.25909C490.645 9.69053 491.918 11.5381 492.717 13.8018C493.533 16.0488 493.932 18.7369 493.916 21.8661V67.2813C493.916 74.6382 492.326 79.8148 489.147 82.8108C487.616 84.3255 485.435 85.4407 482.606 86.1564C479.776 86.8721 476.339 87.23 472.294 87.23H436.766Z" fill="black"/>
<path d="M537.383 22.9397H532.814V46.259H537.233C538.915 46.259 540.121 45.8179 540.854 44.9357C541.603 44.0369 541.977 42.4973 541.977 40.3168V28.9568C541.977 26.7763 541.619 25.2284 540.904 24.3129C540.188 23.3975 539.014 22.9397 537.383 22.9397ZM498.909 87.2549V4.21442H554.336C558.214 4.21442 561.51 4.55564 564.223 5.23807C566.953 5.9205 569.183 6.97744 570.914 8.40889C572.645 9.84034 573.902 11.6962 574.684 13.9766C575.483 16.2569 575.883 18.97 575.883 22.1158V45.0106C575.883 52.5174 574.276 57.7355 571.064 60.665C567.968 63.5945 562.392 65.0592 554.336 65.0592H532.814V87.2549H498.909Z" fill="black"/>
<path d="M580.901 87.2549V4.21442H641.995V23.1395H614.382V36.2222H638.924V55.1473H614.382V68.3299H641.995V87.2549H580.901Z" fill="black"/>
<defs>
<filter id="filter0_d_985_125156" x="53.8125" y="17.0625" width="37.875" height="37.875" filterUnits="userSpaceOnUse" color-interpolation-filters="sRGB">
<feFlood flood-opacity="0" result="BackgroundImageFix"/>
<feColorMatrix in="SourceAlpha" type="matrix" values="0 0 0 0 0 0 0 0 0 0 0 0 0 0 0 0 0 0 127 0" result="hardAlpha"/>
<feOffset/>
<feGaussianBlur stdDeviation="7.21875"/>
<feComposite in2="hardAlpha" operator="out"/>
<feColorMatrix type="matrix" values="0 0 0 0 1 0 0 0 0 1 0 0 0 0 1 0 0 0 1 0"/>
<feBlend mode="normal" in2="BackgroundImageFix" result="effect1_dropShadow_985_125156"/>
<feBlend mode="normal" in="SourceGraphic" in2="effect1_dropShadow_985_125156" result="shape"/>
</filter>
<filter id="filter1_dd_985_125156" x="12" y="12" width="66" height="66" filterUnits="userSpaceOnUse" color-interpolation-filters="sRGB">
<feFlood flood-opacity="0" result="BackgroundImageFix"/>
<feColorMatrix in="SourceAlpha" type="matrix" values="0 0 0 0 0 0 0 0 0 0 0 0 0 0 0 0 0 0 127 0" result="hardAlpha"/>
<feOffset/>
<feGaussianBlur stdDeviation="7.21875"/>
<feComposite in2="hardAlpha" operator="out"/>
<feColorMatrix type="matrix" values="0 0 0 0 1 0 0 0 0 1 0 0 0 0 1 0 0 0 1 0"/>
<feBlend mode="normal" in2="BackgroundImageFix" result="effect1_dropShadow_985_125156"/>
<feColorMatrix in="SourceAlpha" type="matrix" values="0 0 0 0 0 0 0 0 0 0 0 0 0 0 0 0 0 0 127 0" result="hardAlpha"/>
<feOffset/>
<feGaussianBlur stdDeviation="12.75"/>
<feComposite in2="hardAlpha" operator="out"/>
<feColorMatrix type="matrix" values="0 0 0 0 1 0 0 0 0 1 0 0 0 0 1 0 0 0 1 0"/>
<feBlend mode="normal" in2="effect1_dropShadow_985_125156" result="effect2_dropShadow_985_125156"/>
<feBlend mode="normal" in="SourceGraphic" in2="effect2_dropShadow_985_125156" result="shape"/>
</filter>
<linearGradient id="paint0_linear_985_125156" x1="45" y1="0" x2="45" y2="90" gradientUnits="userSpaceOnUse">
<stop/>
<stop offset="1"/>
</linearGradient>
</defs>
</svg>
